<?xml version="1.0" encoding="UTF-8"?>
<svg xmlns="http://www.w3.org/2000/svg" version="1.1" viewBox="0 0 1600 1200" width="736" height="552">
<path transform="translate(0)" d="m0 0h1600v1200h-1600z" fill="#D5EFF7"/>
<path transform="translate(1379,309)" d="m0 0h13l10 4 7 6 5 8 2 7v20l-3 40-5 34-6 31v6l9 6 8 4h2l7-27 6-28 6-11 7-7 14-8 15-3h6l5-16 6-8 5-4 9-3h14l9 4 5 4 6 10 2 10v11l-3 19-6 23-8 21-10 23-8 24-8 18-9 16-12 17-14 15-14 11-16 9-14 5-15 3h-18l-18-3-20-6-4 1-8 11-17 17-12 9-19 10-16 5-13 2h-19l-16-3-15-5-4 1-11 12-12 10-17 9-17 5-6 1h-16l-18-4-11-4-4 1-11 12-13 11-14 9-15 8-19 7-18 4-7 1h-19l-18-3-9-3-2 5-13 15-12 11-16 10-14 7-18 6-19 4-10 1h-25l-17-3-20-5-2 4-15 16-11 10-14 10-21 11-17 5-13 2-16-1-23-6-2 4-8 11-9 10-9 8-14 8-12 5-16 4h-19l-18-4-12-5-12-7-10-9-9-10-7-12-11 9-5 1 2 8 1 16-3 12-5 9-8 9-13 8-12 4-5 1h-18l-12-5-4-3-4 1-10 9-17 12-19 11-18 8-18 6-19 4-16 2h-26l-20-3-20-5-19-7-19-10-20-14-12-11-14-14-11-15-9-15-8-16-8-20-7-25-5-27-2-16-1-18v-33l2-24 5-29 7-27 8-21 10-21 8-14 10-14 8-10 9-10 10-9 16-12 10-6 4-2 15-14 15-12 15-9 17-7 13-4 18-3h26l22 4 18 6 19 10 10 8 9 8 11 14 8 14 8 16 10-9 13-8 8-4 6-2 9-11 10-10 13-8 14-5 5-1h21l12 3 13 7 12 11 7 9 7 14 4 15 1 7v29l-4 20-7 19-3 6v2l10 7 8 8 7 11 6 12v2h2l3 17 3 27v44l2 4 7 1 5-3 6-7 7-14 3-9 3-7 2-8h2v-63l3-15 3-7-6 2h-13l-10-3-10-6-8-8-5-11-2-7v-14l3-10 5-9 9-9 12-6 4-1h15l-1 4-5 16v14l2 6 2 1v4l4 2 2 2 5 2v2l10 2h13l10-3v-2l5-2 8-11 2-8v-14l-4-9-4-5-9-6-5-2-11-1-3-1v-13l3-19 5-19 7-16 7-12 8-10 10-10 15-10 11-5h2l8-10 12-12 12-8 14-5 12-2h11l15 3 12 5 13 9 9 10 9 16v3h2l3 11 2 5 4 21 2 18v34l-2 25-3 23-3 18-4 19v14l8 20 10 21 4 6h9l13-4h3v-2l7-3 9-9 7-6 1-3h2l2-5 3-7v-9h-2l-5-9-2-1-4-9v-2h-2l-4-12-3-7v-2h-2l-2-7-6-16-5-24-2-10-3-19-2-24v-47l2-4 5-23 5-12 5-9 3-7 9-12 10-9 14-7 11-3 8-1h10l16 3 12 5 14 10 9 10 9 15 6 15 5 19 2 13v46l-4 32 7-20 10-19 9-12 17-17 17-11 11-5 7-8 8-8 14-10 13-6 15-3h10l12 2 13 5 3 1 6-5 12-4h15l11-4 5-1h12v-11l5-9 8-8 10-4 10-1 10 3 6 4 4 4 15-6 10-2h8l1-9 6-12 8-7z" fill="#70C3D7"/>
<path transform="translate(1382,315)" d="m0 0 11 1 8 4 6 8 2 5v22l-3 39-5 35-7 32v6l7 6 14 8 12 3 13-1 10-5 10-9 9-14 8-17 7-23 7-32 4-8 7-6 9-3 10 1 6 3 8 9 2 8v13l-4 20-9 29-11 25-8 13-9 12-10 11-15 11-12 6-13 4-5 1h-18l-17-4-15-6-14-7-4 2-11 18-11 14-9 9-15 10-11 5-15 4-6 1h-14l-15-3-13-5-11-6-1-1h-7l-2 5-9 13-9 10-12 9-11 5-12 3h-15l-12-3-12-5-11-8-6 2-7 12-12 14-12 10-13 8-14 7-20 6-15 2h-9l-14-2-16-5-6-3h-5l-11 15-6 8-9 10-9 8-13 8-13 6-17 5-18 3h-22l-17-3-21-7-7-3-6 1-2 5-8 12-11 12-9 9-14 10-15 8-13 4-5 1h-17l-16-4-14-7-3-2-4 1-3 3-10 19-11 14-10 9-15 8-14 3h-14l-16-4-13-7-11-10-8-12-4-11-2-9-1-10v-45l-3-19-5-10-5-5-3-1h-11l-7 3-6 10-6 15-5 21-4 30v24l2 27 1 7v18l-6 9-9 6-6 2-10 1-9-3-8-7-6-11-4 2-7 7-7 8-10 9-15 11-15 9-16 8-17 6-17 4-15 2h-21l-21-3-19-5-13-5-16-8-15-10-13-11-12-12-10-13-8-13-8-15-8-21-7-24-5-30-2-22v-36l3-28 5-25 8-26 9-21 10-19 8-12 8-10 9-10 8-8 16-12 21-11 18-6 15-3 8-1h20l19 3 16 5 16 8 11 8 10 9 10 11 7 11 8 16 5 17 2 13v19l-3 17-6 16-7 13-9 12-9 10-9 8-13 8-12 5-10 3-7 1-16-1-10-3-8-4-8-7-4-9v-11l4-8 7-6 4-2h28l10-3 9-5 10-9 8-14 3-10v-16l-4-17-7-14-10-11-13-8-10-4-9-2-15-1-19 3-15 5-13 7-12 9-7 7-11 15-9 16-8 20-6 21-4 23-2 18v37l3 29 6 25 6 17 8 16 7 11 9 11 7 7 14 10 15 8 18 6 16 3h21l20-4 19-8 15-9 14-11 13-12 10-11 10-13 9-14 8-13h1l5-15v-32l-1-43v-85l3-19 5-16 7-14 8-10 7-7 11-7 12-5 9-2h16l13 4 12 7 10 10 8 13 5 12 4 20v20l-3 17-7 19-8 16 5 2 13 10 10 13 6 12 5 18 2 12 1 11v22l-1 14v10l3 7 5 5 6 3 9-3 7-6 7-11 7-16 6-20 2-14v-52l3-10 6-8 7-4 10-1 10 3 5 4 5 10 2 14 2 31 3 14 4 10 7 8 8 4 4 1h7l10-4 11-8 12-12 10-15 4-9-16-24-8-16-7-15-8-23-7-24-7-33-4-29-1-27 3-22 5-19 8-16 8-11 7-7 13-9 12-5 11-2h12l15 3 14 7 12 11 9 14 7 18 4 17 3 29v27l-2 32-4 28-5 25-7 26-8 26-1 7 8 5 11 4 10 2h19l14-3 13-5 11-7 10-11 11-18 2-4-1-5-10-16-12-23-9-24-7-26-5-26-2-19-1-18v-21l3-25 4-17 6-16 8-14 9-10 8-7 13-6 8-2 15-1 17 3 16 8 10 9 7 8 9 17 6 18 3 19 1 12v23l-3 29-6 33-7 29-11 33-8 20 1 5 4 3 9 3h10l16-5 16-8 10-7 7-7 8-13 7-17 3-16-1-13-1-9v-24l3-21 6-21 7-16 9-14 9-10 9-9 13-8 12-4 5-1h16l12 3 12 5 5-2 8-5 6-2h9l10 5 4 5 3 7v25l-1 18v15l2 25 4 20 5 13 7 10 10 5 4 1h7l13-4 9-6 10-10 9-15 6-12 1-6-11-14-14-20-12-20-15-28-9-20-1-3v-12l5-8 8-7 5-2h10l8 4 8 9 24 46 7 11h4l3-20 4-57 3-10 8-9z" fill="#FCFCFC"/>
<path transform="translate(287,454)" d="m0 0h20l19 3 16 5 16 8 11 8 10 9 10 11 7 11 8 16 5 17 2 13v19l-3 17-6 16-7 13-9 12-9 10-9 8-13 8-12 5-10 3-7 1-16-1-10-3-8-4-8-7-4-9v-11l4-8 7-6 4-2h28l10-3 9-5 10-9 8-14 3-10v-16l-4-17-7-14-10-11-13-8-10-4-9-2-15-1-19 3-15 5-13 7-12 9-7 7-11 15-9 16-8 20-6 21-4 23-2 18v37l3 29 6 25 6 17 8 16 7 11 9 11 7 7 14 10 15 8 18 6 16 3h21l20-4 19-8 15-9 14-11 13-12 10-11 10-13 9-14 8-13h1l5-15v-32l-1-43v-85l3-19 5-16 7-14 8-10 7-7 11-7 12-5 9-2h16l13 4 12 7 10 10 8 13 5 12 4 20v20l-3 17-7 19-8 16 5 2 13 10 10 13 6 12 5 18 2 12 1 11v22l-1 14v10l3 7 5 5 6 3 9-3 7-6 7-11 7-16 1-3 3 1v21l3 14 4 13 2 9 4-1 6-5 2 1-3 6-11 12-11 7-11 5-11 2h-14l-16-4-13-7-11-10-8-12-4-11-2-9-1-10v-45l-3-19-5-10-5-5-3-1h-11l-7 3-6 10-6 15-5 21-4 30v24l2 27 1 7v18l-6 9-9 6-6 2-10 1-9-3-8-7-6-11-4 2-7 7-7 8-10 9-15 11-15 9-16 8-17 6-17 4-15 2h-21l-21-3-19-5-13-5-16-8-15-10-13-11-12-12-10-13-8-13-8-15-8-21-7-24-5-30-2-22v-36l3-28 5-25 8-26 9-21 10-19 8-12 8-10 9-10 8-8 16-12 21-11 18-6 15-3z" fill="#FCFCFC"/>
<path transform="translate(1382,315)" d="m0 0 11 1 8 4 6 8 2 5v22l-3 39-5 35-7 32v6l7 6 14 8 12 3 13-1 10-5 10-9 9-14 8-17 7-23 7-32 4-8 7-6 9-3 10 1 6 3 8 9 2 8v13l-4 20-9 29-11 25-8 13-9 12-10 11-15 11-12 6-13 4-5 1h-18l-17-4-15-6-14-7-4 2-11 18-11 14-9 9-15 10-11 5-15 4-6 1h-14l-15-3-13-5-11-6-1-1h-7l-2 5-9 13-9 10-12 9-11 5-12 3h-15l-12-3-12-5-11-8-6 2-7 12-5 6-1-2-5-2-2-3-6-25-2-9-1-13-3-1 1-5 3-12 1-12-2-17v-24l3-21 6-21 7-16 9-14 9-10 9-9 13-8 12-4 5-1h16l12 3 12 5 5-2 8-5 6-2h9l10 5 4 5 3 7v25l-1 18v15l2 25 4 20 5 13 7 10 10 5 4 1h7l13-4 9-6 10-10 9-15 6-12 1-6-11-14-14-20-12-20-15-28-9-20-1-3v-12l5-8 8-7 5-2h10l8 4 8 9 24 46 7 11h4l3-20 4-57 3-10 8-9z" fill="#FBFCFC"/>
<path transform="translate(449,506)" d="m0 0 1 2-3 6h-2l-2 6-3 11-2 14h-2l-1 20v82l1 21v46l-4 10-7 13-13 19-11 14-20 20-14 11-6 4-5 1-5 5-17 6-15 3h-23l-18-4-14-5-11-6-13-10-11-11-9-12-10-19-7-21-5-21-3-23v-40l3-26 4-17 3-5 1-9 6-15 8-16 6-10 1-3h2l1-4h2l1-4h2l2-5 10-10 7-2v-2l22-9 11-2h23l15 4v2l5 2 8 6 9 10 5 10 4 15v15l-6 17-7 8-10 8-7 3h-21l-12 2-10 5-7 9-2 7v8l1 10 7 10 10 6 16 6h25l17-5 10-5h2v-2l6-3 8-6h2v-2l7-5 7-8 5-6 3-5 9-17 6-17 2-14v-28l-2-11v-5h-2v-5l10-9 13-8 8-4z" fill="#D5EFF7"/>
<path transform="translate(181,501)" d="m0 0h3l-1 4-10 14-2 5h-2l-2 5-9 17-1 4h-2l-3 10-8 25-6 29-2 14-1 13v51l3 27 5 24 9 27 12 25 6 11 11 15 7 8 12 12 17 12 18 10 8 4 22 8 17 4 19 2h16l22-3 21-6 20-8 6-2 1-3h4l1-3 7-2 1-3 11-7 4-2 4-5 11-9h2l2-4 4-5h3l4 7 8 6 7 2 22 1 2 15v7l-3 12-5 9-8 9-13 8-12 4-5 1h-18l-12-5-4-3-4 1-10 9-17 12-19 11-18 8-18 6-19 4-16 2h-26l-20-3-20-5-19-7-19-10-20-14-12-11-14-14-11-15-9-15-8-16-8-20-7-25-5-27-2-16-1-18v-33l2-24 5-29 7-27 8-21 10-21 8-14 10-14 8-10 9-10 10-9 16-12z" fill="#F0A36D"/>
<path transform="translate(523,662)" d="m0 0h8l5 4 1 6h2l2 11 1 67 2 10 7 14 3 1 3 6 6 7 10 6 1 2 11 4 9 3 7 1h23l14-5 5-3h4l1-3 9-5 8-8 1-3h2l1-3h2l1-5 5-6 5-13 3-1 2 1v2l9 3 10 3v2l8 1 3 1h16l9-1 1-2 25-10 4-4 7-5h2v-2l4-1 1-3 5-2 11-12 8-11 7-9 6 1 1 3 13 2 22 6h34l18-3 13-3 4-3 5-2h4v2h2l-2 4-7 5 2 4 5 5-1 7 2 1-3 1-1 4-1 2h2l-1 5-12 10-13 8-14 7-18 6-19 4-10 1h-25l-17-3-20-5-2 4-15 16-11 10-14 10-21 11-17 5-13 2-16-1-23-6-2 4-8 11-9 10-9 8-14 8-12 5-16 4h-19l-18-4-12-5-12-7-10-9-9-10-6-10 1-6 1-2h2l1-7v-14l-3-30v-34l3-22 2-16 4-13 7-14z" fill="#ED7A92"/>
<path transform="translate(449,506)" d="m0 0 1 2-3 6h-2l-2 6-3 11-2 14h-2l-1 20v82l1 21v46l-4 10-7 13-13 19-11 14-20 20-14 11-6 4h-3l1-4 16-24 9-17v-19l-1-46-1-21-10 13-8 8-14 10-23 12-15 5-17 3h-27l-15-4-10-4-9-7-7-7-5-9-2-11 1-10 4-10 7-8 12-6 5-1 17 1 9 1 7 10 10 6 16 6h25l17-5 10-5h2v-2l6-3 8-6h2v-2l7-5 7-8 5-6 3-5 9-17 6-17 2-14v-28l-2-11v-5h-2v-5l10-9 13-8 8-4z" fill="#EF937C"/>
<path transform="translate(727,407)" d="m0 0h1v5l-5 11-3 6-3 13-1 1-2 28v19l4 36 6 26 2 8v7h2l4 18 7 18 5 10 5 13 3 8 6 7 3 5v2h2v3l4 2 3 4-1 8-2 3h-3l-1 3-2 1-2 5-21 21-8 3h-10l-6-4-2-2-5-15-2-3-4-35-1-17-3-9-7-8-7-5-13-2v-4l-3 1-2 4-13 5-8 6-4 1h-13l-10-3-10-6-8-8-5-11-2-7v-14l3-10 5-9 9-9 12-6 4-1h15l-1 4-5 16v14l2 6 2 1v4l4 2 2 2 5 2v2l10 2h13l10-3v-2l5-2 8-11 2-8v-14l-4-9-4-5-9-6-5-2-11-1-3-1v-13l3-19 5-19 7-16 7-12 8-10 10-10 15-10z" fill="#ED7B92"/>
<path transform="translate(1129,601)" d="m0 0 15 7 14 5 6 1h17l15-4 10-6 5-1 4 4-2 8 5 1 1 9-1 2v8l-9 3 1 2-5 4-7 8-10 9-13 8-11 5-14 4-6 1h-16l-18-4-11-4-4 1-11 12-13 11-14 9-15 8-19 7-18 4-7 1h-19l-18-3-9-3-2 5-13 15-2 1v-3h-2l2-6 2-1-1-4-1-5-5-5v-4l8-6 1-2h-2v-2l-11 4-5 3-20 4-8 1h-34v-1l29-1 17-3 20-6 5-1v-2l12-6 12-10 8-7 5-5h2l2-5 4-5h2l2-6 4-4 7 1 16 5 11 2h16l18-4 21-7 17-9 16-12 12-12 9-12z" fill="#9AAEB8"/>
<path transform="translate(523,662)" d="m0 0h8l5 4 1 6h2l2 11 1 67 2 10 7 14 3 1 3 6 6 7 10 6 1 2 11 4 9 3 7 1h23l6-1-3 3h-2l-2 2-2-1-1 2-5 3-2 2 1 4 2 1 1 3 9-1v2h5l3 3-3 4-1 4h6l2-7 5-4h3v-2h2v-2h3l1 3-3 7-11 13-7 7-13 9-15 7-13 4-6 1h-19l-18-4-12-5-12-7-10-9-9-10-6-10 1-6 1-2h2l1-7v-14l-3-30v-34l3-22 2-16 4-13 7-14z" fill="#F08688"/>
<path transform="translate(908,363)" d="m0 0 1 3-7 13-4 13-4 18-2 4v47l2 24 4 27 4 15 3 13 5 14 1 1v6h2l4 9 3 9v3h2l4 8v3l3 1 4 7v2h2l1 9-3 7-3 5h-2l-1 4-9 8h-2l-2 5-6 4h-4v2l-16 5h-9l-7-11-10-21-6-16v-14l4-19 4-24 3-26 1-16v-34l-2-18-5-25-3-9v-3h-2l-1-5 4-10 9-13 9-9 13-9 13-6z" fill="#D58A9E"/>
<path transform="translate(287,509)" d="m0 0h23l15 4v2l5 2 8 6 9 10 5 10 4 15v15l-6 17-7 8-10 8-7 3h-13l-9-1-4-13-7-11-11-7-8-3-13-1-16 2-16 6-11 8-11 11h-2l1-9 6-15 8-16 6-10 1-3h2l1-4h2l1-4h2l2-5 10-10 7-2v-2l22-9z" fill="#F0A36D"/>
<path transform="translate(1381,527)" d="m0 0 3 1v3 8l-3 2-2-2-4 1-1 3h-2l-2 4-2 6 2 1v-3h2v-2h2v7 4l-2 3 1 6-3 5h-2l-1 7 1 4-6 6h-12v2l-4 2-8 11-17 17-12 9-19 10-16 5-13 2h-19l-16-3-15-5-3-3 2-2 8-1-1-9 1-1v-9l-4 1-2-3 2-7-3-3-3-1 13-11 6-6h2l2-4 7-8h6l10 4 18 5 13 2h12l18-4 12-5 14-7 5-6 7-5 9-11 9-10 9-9z" fill="#7EB8C2"/>
<path transform="translate(249,648)" d="m0 0 17 1 9 1 7 10 10 6 16 6 5 1 17 1 3 2v3l10 2 6 1 1 3 11 1 4-2 4 1v5l-10 9-16 10-21 10-15 4-12 2h-27l-15-4-10-4-9-7-7-7-5-9-2-11 1-10 4-10 7-8 12-6z" fill="#F0A36D"/>
<path transform="translate(1508,498)" d="m0 0h3l-1 6-9 21-8 15-11 16-12 14-12 11-15 10-15 7-16 4-6 1h-18l-18-3-20-6v-3l3-1h8l3-2h2l1-4-1-7 5-5 1-4-1-5 3-5-2-1 1-1 1-7h-2v2h-2v3l-3-1 3-7 5-6 5-2 2 2 1-1v-6l-1-4 3-2 16 6 19 5 25 1 9-2 11-5 14-8 4-2 5-5 7-4 4-5 3-3 1-3h2v-2z" fill="#6ABFC6"/>
<path transform="translate(438,819)" d="m0 0h3l4 7 8 6 7 2 22 1 2 15v7l-3 12-5 9-8 9-13 8-12 4-5 1h-18l-12-5-4-3-4 1-10 9-17 12-5 3-2-1 3-3h2l2-8-3-5v-2l-6 1-1-2-6-2-5-1-4 1 1 3-5 2-4-4v-2l5-2v-1h-7l-5-6-2-1 1-4 28-8 20-8 6-2 1-3h4l1-3 7-2 1-3 11-7 4-2 4-5 11-9h2l2-4z" fill="#EF937C"/>
<path transform="translate(1113,411)" d="m0 0v3l-7 10-7 14-6 20-4 22v58l-3 12h-2l-1 4-3 10-2 4h-2l-1 5-10 11-10 6-18 7h-3l2-14v-14l-1-11v-21l4-29 5-19 6-16 9-17 9-12 17-17 17-11z" fill="#ADA3B0"/>
<path transform="translate(1257,370)" d="m0 0h11l5 12 9 20 7 14 17 28 8 12 11 15 5 7-1 9h-2l-1 4-6 10-7 10-5 5-14 7h-11l-8-2-5-5-5-10-5-17-2-18v-41l1-28-3-10-7-10-8-5v-2l11-4z" fill="#7EB8C2"/>
<path transform="translate(1172,429)" d="m0 0 9 1 8 6 8 13 5 14 2 10 1 10v22l-5 22-5 12-7 12-7 7-7 4-9-1-8-6-8-14-6-16-2-12v-28l3-16 6-16 7-12 10-10z" fill="#95B3BE"/>
<path transform="translate(964,381)" d="m0 0h10l6 4 6 10 4 10 3 16v33l-4 30-5 26-9 34-4 9-5-1-5-11-8-25-5-22-3-23v-41l3-21 5-15 5-11z" fill="#B89EAC"/>
<path transform="translate(983,651)" d="m0 0 7 1 16 5v2l17 2 2 4-3 3v13l1 2v10l2 8 12 3 1 5-1 3-3 1-2 3-21 6-13 2h-19l-18-3-9-3-2 5-13 15-2 1v-3h-2l2-6 2-1-1-4-1-5-5-5v-4l8-6 1-2h-2v-2l-11 4-5 3-20 4-8 1h-34v-1l29-1 17-3 20-6 5-1v-2l12-6 12-10 8-7 5-5h2l2-5 4-5h2l2-6z" fill="#BC9CAB"/>
<path transform="translate(1120,620)" d="m0 0 2 2v3l2 3-2 6 4 5v5l-2 3 1 4 1 1-1 9 2 5-1 3 7 2 3 4-2 2-5-1-4-1v2h-8l-18-6-4 1-11 12-13 11-14 9-15 8-9 3 1-3h3v-7l-9-2-4-4-2-6v-10l-1-7v-8l3-4-1-3h-8l-9-2v-1l11 1h16l18-4 21-7 17-9 8-6 10-4 11-7z" fill="#ADA3B0"/>
<path transform="translate(933,701)" d="m0 0h4v2h2l-2 4-7 5 2 4 5 5-1 7 2 1-3 1-1 4-1 2h2l-1 5-12 10-13 8-14 7-18 6-8 2-4-1 2-2-2-3-4-1-4-4-1-12-1-7-1-10 1-3v-11l-2-1-11-5-9-5-1-3 9 1 18 5h34l18-3 13-3 4-3z" fill="#D68A9E"/>
<path transform="translate(624,634)" d="m0 0h16v63h-2l-2 11-4 10-5 12-6 9-7 6-7 1-3-2-2-4v-44l-4-35-1-2v-8l4-5 10-7 9-4z" fill="#ED7B92"/>
<path transform="translate(787,432)" d="m0 0h8l5 4 3 9 2 5 3 20v52l-3 23-2 13-3 14-1 1-2 11h-2l-4-13-10-38-3-15-1-2-2-19-1-4v-35l2-7h2l1-7 3-7z" fill="#EB7C93"/>
<path transform="translate(1476,391)" d="m0 0h5l2 2-2 10-7 24-8 20-7 14-9 10-8 5-7 1h-8l-5-2 1-7 6-25 5-23 6-11 7-7 14-8z" fill="#6ABFC6"/>
<path transform="translate(788,424)" d="m0 0h8l6 4 5 8 4 13 3 16 1 13v36l-3 28-5 28-6 26-1 2-4 1-5-8-12-36-7-29-4-22-1-11v-28l3-19 5-12 5-6zm-1 8-7 8-2 7v4h-2l-2 7v35l2 13 1 10 2 8 5 21 7 26 4 13h2l2-11 1-1 3-14 3-23 2-13v-52l-3-20-4-12-4-5-2-1z" fill="#70C3D6"/>
<path transform="translate(964,381)" d="m0 0h10l6 4 6 10 4 10 3 16v33l-4 30-5 26-9 34-4 9-5-1-5-11-8-25-5-22-3-23v-41l3-21 5-15 5-11zm1 7-4 4-6 16-3 14-1 7v38l1 11 1 1 1 11 5 24 5 16 3 6h2l4-11 2-9 2-10 5-24 1-1 4-29v-30l-3-15-4-10h-2l-2-5-3-3z" fill="#6EC4D8"/>
<path transform="translate(509,523)" d="m0 0 6 1 6 8 4 11 1 7v8l-4 15-7 14-8 11-11 11h-6v-59l3-12 5-8 7-6z" fill="#6EC4D8"/>
<path transform="translate(1120,620)" d="m0 0 2 2v3l2 3-2 6 4 5v5l-2 3 1 4 1 1-1 9 2 5-1 3 7 2 3 4-2 2-5-1-4-1v2h-8l-18-6-4 1-8 9v-3l1-2h-2v-2l-6 2v2l-4 1v-14l-3-3 2-6-1-2-11 2-4 1-7 1-4-2 24-8 17-9 8-6 10-4 11-7z" fill="#A7AAB4"/>
<path transform="translate(1167,448)" d="m0 0h3v2l3 1-1 4 3 6-2 4 3 2v3h2l1 7 2 5-1 3h3l-1 6 2 1-2 5v2l-1 4-1 3 4 2 1 4v12l-3 7-3 5-2 5-2 3-5 1-5-3-3-3-3-8-4-7-2-10-1-17h-2l-1-6 5-10 2-6h2l2-9 3-11 1-4z" fill="#9BAEB8"/>
<path transform="translate(438,819)" d="m0 0h3l4 7 8 6 7 2 22 1 2 15v7l-3 12-5 9-8 9-13 8-12 4-5 1h-14l2-1 1-2 4-1 7 1v-2l10-4 2-1 1-3 3-3 1-3 5-2v-2l3-3-3-9v-2l4-1 2 5v-4l-5-3h-2l-2 2-4-6-2-1 1-5-4-3-3-9-3-2v-2h-2v2l-8 2-2 5-7 5-11 6-7 4-6 1-2-2v-3h2l1-3 11-7 4-2 4-5 11-9h2l2-4z" fill="#EF8F84"/>
<path transform="translate(658,528)" d="m0 0h13l9 4 6 5 5 10v12l-5 10-8 7-8 3h-9l-9-3-7-6-4-7-1-4v-12l5-10 7-6z" fill="#FBFCFC"/>
<path transform="translate(1172,429)" d="m0 0 9 1 8 6 8 13 5 14 2 10 1 10v22l-5 22-5 12-7 12-7 7-7 4-9-1-8-6-8-14-6-16-2-12v-28l3-16 6-16 7-12 10-10zm-1 8-8 7-7 11-7 21-2 16v12l2 16 6 20 4 6 8 7 5 1 9-5 4-5 7-16 4-13 1-7v-36l-4-15-6-11-6-7-3-2z" fill="#6EC5D9"/>
<path transform="translate(519,665)" d="m0 0v3l4 2 6 2-2 4-2 3 4 4v2h-2l1 6h-2l1 6-3 6-1 11 2 2v6l-3 7-1 8v3l-2 4v14l-1 7-4 1-1 7-3-1-2 1-2 7-2 15h-1l-3-29v-34l3-22 2-16 4-13 7-14z" fill="#F18E83"/>
<path transform="translate(1113,411)" d="m0 0v3l-7 10-7 14-6 20-4 22v58l-3 12h-2l-1 4-3 10-2 4h-2l-1 5-10 11-5 3-2-1 7-8 3-3 7-11 1-8 4-12 1-10-5-12-1-16 3-1v-27l-2-7v-3-3h3l-1-10 1-2-3-1 1-10 1-2-4 1-5 5-3 2 2-4 17-17 17-11z" fill="#A5AAB4"/>
<path transform="translate(1210,603)" d="m0 0 4 2 1 4-2 6 5 1 1 9-1 2v8l-9 3 1 2-5 4-2 2-7 2-4 1v2h-2l-1 2-1-2-2 2v-2l-5 1-3-2 1-4-5-2-2-8-5-1 1-6-3-5-1-6-6-2-10-3-6-4 2-1 14 5 6 1h17l15-4 10-6z" fill="#96B3BE"/>
<path transform="translate(967,393)" d="m0 0 5 1 3 5-1 3-3 2v9l1 5-1 3 3 9-3 4 2 3-1 21-2 7-1 9-5 13v14l-1 7-4-3-1-7h-2l-2-8-1-11-1-1-1-11v-38l2-13h2l2-10 3-5h2v-3h2l2-4z" fill="#C498A9"/>
<path transform="translate(620,644)" d="m0 0h8l2 4-1 3h-5l-1 1 3 1 2 10-3 12-3 1 1 4-3 12 1 7h2l1 5-4 12v10l-1 4 2 4-2 3h-9l-3-3-3-1-1-47-2-9-3-20 3-2 1 2 3-1 3-6 8-2z" fill="#F08588"/>
<path transform="translate(612,544)" d="m0 0h5l2 4 1 5 3 9v10 4l-1 7 4 2-1 10 2 1 2 4 2 5-1 3h-2l-1 3-6 1-6-2-9-6-7-7-5-11-2-7v-14l6-4h3l1-6 5-8z" fill="#F08688"/>
<path transform="translate(965,680)" d="m0 0 2 4v7l3 4 4 2 1 10 5 7 4 4 2 4-3 1h-11l-14-3-6-2-2 5-13 15-2 1v-3h-2l2-6 2-1-1-4-1-5-5-5v-4l8-6 1-2h-2v-2l-11 4-5 3-20 4-8 1h-34v-1l29-1 17-3 20-6 5-1v-2l10-5 5-2 8-4h2l2-4z" fill="#C797A8"/>
<path transform="translate(645,697)" d="m0 0 3 4 9 19 7 9 5 5 8 7 3 2-3 3-10 19-4 4-1-2-7 6-4-1-4-16-4-13-1-7v-21l-1-4z" fill="#DCE0E1"/>
<path transform="translate(660,521)" d="m0 0 15 1 10 5 8 7 4 8 1 3v14l-3 9-8 11-5 1v2l-10 4h-13l-10-3-1-2-5-2-5-4v-4l-3-1-2-6v-14l3-11 4-9 4-2 8-5zm-2 7-10 6-6 8-2 5v12l3 8 6 7 8 4 4 1h9l10-4 7-7 4-9v-12l-5-10-7-6-8-3z" fill="#73C2D5"/>
<path transform="translate(507,531)" d="m0 0 6 1 5 9v24h-2l-1 8-8 16-5 6-6 4v-45l2-12 5-8z" fill="#F08588"/>
<path transform="translate(836,601)" d="m0 0 7 1 3 3-3 12-8 27h-3l-8-7-9-10-7-11-1-3 7-4 7-3 13-4z" fill="#DCE0E1"/>
<path transform="translate(1341,341)" d="m0 0h13l1 9-1 18-3 21-2 3-4-1-2-7-3-7-5-5-8-15-3-9 10-5z" fill="#7EB8C2"/>
<path transform="translate(854,601)" d="m0 0h2l8 21 11 23 4 6v2h-10l-15-3-11-4-1-1 1-8 7-21z" fill="#D5EFF7"/>
<path transform="translate(520,785)" d="m0 0 2 2 2 6-3 4h2v2h2l1 4h-2l-2 5-1 5h3l2 3v5h2v-2l3 1 1 7 3 4v7h-2l1 6v2 3l-1 6v3l-2 1-6-4 1-3h2l-1-3 1-1-6-4-7-5 1-4-3-5h-3l-2-4h2l-1-3v-4l3-6v-17l2-10 2 2z" fill="#F18E83"/>
<path transform="translate(1006,555)" d="m0 0 9 1 1 5 1 3-12 31-6-2-8-7-11-15-1-4 9-6 9-3z" fill="#DCE0E1"/>
<path transform="translate(1037,515)" d="m0 0h1l-1 14-1 8v21l1 11v14l-3 14-7 3-11-1-4-2 1-5 9-23 8-26 5-20z" fill="#D5EFF6"/>
<path transform="translate(1094,553)" d="m0 0h3l10 19 10 13 7 7-6 11-7 9-1-2-5-2-2-3-6-25-2-9-1-13-1-3z" fill="#DCE0E1"/>
<path transform="translate(1208,507)" d="m0 0 2 3 7 21 8 17 9 12 2 3h-2l-2 5-9 13-2 1v-2l-4 1-2-2-2-12v-22l-1-18-3-12z" fill="#DCE0E1"/>
<path transform="translate(437,731)" d="m0 0h1l1 16 1 58-5 2-2-3-5-34-1-6-1-15z" fill="#DCE1E2"/>
<path transform="translate(552,594)" d="m0 0 8 1 1 5-7 13-11-2h-28l-16 4-7 4h-2l1-4 17-6 14-6 10-3 8-3z" fill="#DCE0E1"/>
<path transform="translate(507,531)" d="m0 0 6 1 5 9v24h-2l-1 8-8 16-5 6-6 4v-45l2-12 5-8zm-2 6v2h-3l-1 5h-2l-2 16v17l1 13 5-1 9-15 4-9v-6h-2l-2-11-8-1 2-10z" fill="#F08C85"/>
<path transform="translate(645,697)" d="m0 0 2 3v17l2 6 2 7 3 22 2 9 1 7 3 1-5 4-4-1-4-16-4-13-1-7v-21l-1-4z" fill="#DEEFF5"/>
<path transform="translate(921,582)" d="m0 0 3 4 2 4v3l3 1 4 7v2h2l1 9-3 7-3 5h-2l-1 4-9 8-1-3 4-7 1-2v-16l-1-5h-2l-1-9 3-6z" fill="#C09AAA"/>
<path transform="translate(1348,498)" d="m0 0 5 2 11 10 9 6-8 14-3 3-6-2-2-3-3-13-4-13z" fill="#DCE0E2"/>
<path transform="translate(504,799)" d="m0 0h1l1 7 3 3 1 10 1 4-2 4 2 3h3l3 5-1 4 10 7 3 3-1 3h-2v2l-4-1-8-7-10-11-6-10 1-6 1-2h2z" fill="#EF8888"/>
<path transform="translate(137,535)" d="m0 0 4 1-10 12-6 9-6 1-8 9-6 14-4 10-3 6-3-1-1-5 6-13 4-10 7-8 1-5 13-9 2-4 4-1v-3z" fill="#DEEEF4"/>
<path transform="translate(956,629)" d="m0 0 11 7 12 7-7 11-7 10-1-2 1-2h-3l-4-7-3-19z" fill="#DCE0E2"/>
<path transform="translate(789,681)" d="m0 0 11 6 9 5 4 2h-2l-2 5-8 12-2 1v-2l-4 1-3-5-2-18z" fill="#DCE0E2"/>
<path transform="translate(1094,553)" d="m0 0h3l8 17h-2l3 16 1 15 2 4 6-1v3l-5 5v-2l-5-2-2-3-6-25-2-9-1-13-1-3z" fill="#DEEFF5"/>
<path transform="translate(836,601)" d="m0 0 7 1 3 3-3 12-2 6-1-4v-6l-8-1-13 4-6 2h-2l-1 2-3-7 7-4 7-3 13-4z" fill="#DEEFF5"/>
<path transform="translate(430,742)" d="m0 0h1l-1 14 5 15 2 3 1 28 1 4-4 1-2-3-5-34-1-6-1-15z" fill="#DEEFF5"/>
<path transform="translate(599,664)" d="m0 0 2 4 1 9 2 9 1 47h3l2 3h7l2 1 6-12 2-1 1 4-7 11-7 6-7 1-3-2-2-4v-44l-3-27z" fill="#DE859A"/>
<path transform="translate(1208,507)" d="m0 0 2 3 9 27-1 7 1 31 3 2 5-3-2 4-4 4v-2l-4 1-2-2-2-12v-22l-1-18-3-12z" fill="#DEEFF5"/>
<path transform="translate(1006,555)" d="m0 0 9 1 1 5 1 3-3 8h-1l-2-7-7-1-14 5-6 3-2 2-3-5v-2l9-6 9-3z" fill="#DEEFF5"/>
<path transform="translate(505,537)" d="m0 0 1 3-2 7 2 2-1 9-2 14v11l-1 5v2h-4l-1-13v-17l2-16h2l1-5h3z" fill="#EF8F84"/>
<path transform="translate(552,594)" d="m0 0 8 1 1 5-2 2-1-3-13 2-15 5-12 3-3 2-16 4-7 4h-2l1-4 17-6 14-6 10-3 8-3z" fill="#DEEFF5"/>
<path transform="translate(1386,441)" d="m0 0 10 1 1 1-1 10-3 13-4-5-10-13-1-3z" fill="#DCE1E3"/>
<path transform="translate(383,695)" d="m0 0h1l1 46v19l-3 6-4-2h-2l-1-4 4-16 4-2v-5l-4-2 1-3v2h3l-1-3z" fill="#DEEBF0"/>
<path transform="translate(654,820)" d="m0 0 7 1 3 2h-7v2h-2l-1 6-11 8-8 8-2 4-5 4-2 4-12 3-6 1 4-3 11-6 11-9 7-7z" fill="#DFEBF0"/>
<path transform="translate(1348,498)" d="m0 0 5 2 4 5-2 2 2 10 1 10h5l4-2-2 5-3 3-6-2-2-3-3-13-4-13z" fill="#DEEFF5"/>
<path transform="translate(499,540)" d="m0 0 1 4-2 16v30l5-2 6-11 4-6 2-6h1l-1 8-8 16-5 6-6 4v-45l2-12z" fill="#C794A5"/>
<path transform="translate(373,694)" d="m0 0h3v13l-5 2-6 4-2-1-5 1v-2l-2-1 9-9 5-4z" fill="#DEEFF5"/>
<path transform="translate(232,783)" d="m0 0 4 2 9 9v2l5 2 10 6 12 6 9 4v1h-7l-16-7-12-8-12-11-2-2z" fill="#DCEFF5"/>
<path transform="translate(763,794)" d="m0 0v3l-4 5-3 5-12 9-10 1-9 2 4-3 15-8 11-8z" fill="#DFEDF2"/>
<path transform="translate(956,629)" d="m0 0 6 4v10l2 8 3 3v2l3 1-5 7-1-2 1-2h-3l-4-7-3-19z" fill="#DEEFF5"/>
<path transform="translate(890,432)" d="m0 0h1l2 45 3 23 2 12 4 15 1 11-2-2-4-17-3-15-2-17-2-11z" fill="#ACA5B2"/>
<path transform="translate(1203,390)" d="m0 0 6 2-3 1-1 10-2 13h-3l-2-6-1-7v-8z" fill="#DEEDF2"/>
<path transform="translate(639,634)" d="m0 0h1v63h-2l-2 11-2 4-2-1v-9l-1-2 1-3h2l1-5 2-3 1-5z" fill="#D0939E"/>
<path transform="translate(789,681)" d="m0 0 7 4v19h2v2l8-4-2 5-5 5v-2l-4 1-3-5-2-18z" fill="#DEEFF5"/>
<path transform="translate(226,582)" d="m0 0 2 1-2 3v4l-5 4-7 5h-3v2l-4 1-4 11-2 1 1-9 11-12 7-7z" fill="#DCEDF3"/>
<path transform="translate(686,610)" d="m0 0h7l6 8 2 7v13h-1l-1-11-4-3-4-2-6-9z" fill="#73BBC4"/>
<path transform="translate(278,613)" d="m0 0h5l-1 4-6 8-2 7h-2l-1-2-3 4v-10l7-9z" fill="#DDEFF5"/>
<path transform="translate(434,546)" d="m0 0h1v19l-1 6-1 27h-1v-7h-2v-2h2l-2-16v-7l1-4h-1l1-7z" fill="#F18F81"/>
<path transform="translate(786,769)" d="m0 0 7 1 8 2v1l-9 2-3 1-2 2-8 1-2 4-11 11-2-1 13-13 7-8z" fill="#DEEBEF"/>
<path transform="translate(540,679)" d="m0 0 2 3 1 65 1 11h2l4 10 2 7-3-3-7-15-1-7z" fill="#97AFB9"/>
<path transform="translate(519,665)" d="m0 0v3l1 3 2 2-5 1-2 5-7 12-3 14h-1v-7l3-12 7-15 2-4z" fill="#E58A90"/>
<path transform="translate(714,450)" d="m0 0 1 3-1 18v19l2 16v11h-1l-3-17v-40z" fill="#B99DAC"/>
<path transform="translate(1386,441)" d="m0 0 10 1 1 1-1 10h-1l-2-6-11 1-1 3-3-6z" fill="#DEEFF5"/>
<path transform="translate(1017,587)" d="m0 0h1v9l15-1v3l-6 2-11-1-4-2 1-5 1-2h2z" fill="#DCEFF5"/>
<path transform="translate(506,698)" d="m0 0h6v17l-2 6-2-1 1-4h-1l-1-8-3-1 1-8z" fill="#EF8688"/>
<path transform="translate(187,828)" d="m0 0 5 2v2l9 3 7 5 1 8-6-4-10-9z" fill="#75BAC2"/>
<path transform="translate(504,799)" d="m0 0h1l1 7 3 3v8h-3l-1 3h-2l-2 1-1 6-2-2 1-6 1-2h2z" fill="#E7918A"/>
<path transform="translate(829,380)" d="m0 0 6 1 8 6 8 11 1 6h-2l-7-11-10-9z" fill="#DCEFF5"/>
<path transform="translate(486,831)" d="m0 0h3l-1 4-4 1 3 4-1 2 1 11v3h-2l-1 6h-1v-12l-2-17z" fill="#DEEBF0"/>
<path transform="translate(918,704)" d="m0 0 2 1-4 2h-3v2l-12 3-8 1h-34v-1l29-1 17-3z" fill="#ACA5B2"/>
<path transform="translate(499,540)" d="m0 0 1 4-2 16v33l5-1-1 3-6 4v-45l2-12z" fill="#A8A7B3"/>
<path transform="translate(548,479)" d="m0 0 8 4 7 8 4 5 2 8h-2l-7-11-9-9-3-2z" fill="#DCEFF5"/>
<path transform="translate(261,572)" d="m0 0 13 1v1l-31 4-4-2 10-3z" fill="#DEEBF0"/>
<path transform="translate(497,567)" d="m0 0 2 2v4h2l2 10-1 5v2h-4l-1-13z" fill="#EF927C"/>
<path transform="translate(1050,470)" d="m0 0 1 3-7 19-3 12h-1l1-12 1-5h2l1-10 1-5z" fill="#DAEDF4"/>
<path transform="translate(627,618)" d="m0 0 7 1 3 4v5h-2l-1-4h-10l-4-3 6-2z" fill="#DFEFF5"/>
<path transform="translate(1275,342)" d="m0 0 2 4-5 9-4 7-3-3 2-6z" fill="#DDEFF5"/>
<path transform="translate(523,662)" d="m0 0h8l5 4 1 6h2l1 3v8l-2-4-2-5-3-3-3-4v-3l-10 1z" fill="#D69497"/>
<path transform="translate(1362,311)" d="m0 0 2 3-2 4-2 6h-4l-3 1 1-5 6-8z" fill="#DDEFF5"/>
<path transform="translate(198,697)" d="m0 0h1l5 25v5l-1-2h-2l-3-14z" fill="#DBEFF5"/>
<path transform="translate(599,664)" d="m0 0 2 4 1 9 2 9v23h-1l-4-40z" fill="#A8A5B2"/>
<path transform="translate(630,582)" d="m0 0 4 2 5 3-5 4-4 2-2-2z" fill="#F18688"/>
<path transform="translate(568,601)" d="m0 0 2 2v12l-4-1-3-2 2-6z" fill="#DCEFF5"/>
<path transform="translate(906,547)" d="m0 0 2 2 3 6v6h2l4 9 1 6-4-5v-3h-2l-6-17z" fill="#B2A1AF"/>
<path transform="translate(718,532)" d="m0 0 2 1 6 27v7l-2-1-3-13-3-17z" fill="#AFA2B0"/>
<path transform="translate(845,635)" d="m0 0 2 2 2 7 4 4h-6l-5-3 1-8z" fill="#DDEFF5"/>
<path transform="translate(817,700)" d="m0 0 6 1 1 3 3 1-13 2-4 4 2-5z" fill="#BF98A9"/>
<path transform="translate(963,675)" d="m0 0v3l-7 8-3 3-8 4h-3l12-10 8-7z" fill="#ACA5B2"/>
<path transform="translate(420,552)" d="m0 0h2l2 8-1 6-2 6-2-4z" fill="#F18F82"/>
<path transform="translate(703,662)" d="m0 0h1l2 15 4 9 2 7h-2l-4-8-2-6-1-7z" fill="#9AACB8"/>
<path transform="translate(452,495)" d="m0 0 2 4v1l-3 5-2 2-6 1 1-4 5-4z" fill="#DEEDF3"/>
<path transform="translate(507,531)" d="m0 0 6 1v3h-2l-2 4-5-4-3 9h-1v-6l5-6z" fill="#CA92A4"/>
<path transform="translate(579,798)" d="m0 0 15 5 7 1 18 1v1h-20l-16-3v-2h-3z" fill="#B1A1AF"/>
<path transform="translate(515,537)" d="m0 0 3 4v24h-2z" fill="#B99CAB"/>
<path transform="translate(908,363)" d="m0 0 1 3-6 11h-1v-11l-2-1z" fill="#BB9DAC"/>
<path transform="translate(858,604)" d="m0 0 4 2 2 5v9h-2l-4-11z" fill="#E97D94"/>
<path transform="translate(1192,522)" d="m0 0 1 3-5 12-5 10-3 3-2-1 5-7 7-15z" fill="#7FB8C2"/>
<path transform="translate(576,620)" d="m0 0 5 2 3 3v2h2l2 4v3l-3-1-7-9z" fill="#DCEFF5"/>
<path transform="translate(303,603)" d="m0 0h1l1 6h-12v-3h2v-2h6l2 1z" fill="#DDEEF4"/>
<path transform="translate(356,559)" d="m0 0h1v17l-4 10-2 6h-2l3-10 3-9z" fill="#A4A8B4"/>
<path transform="translate(222,658)" d="m0 0 6 2-5 10-3-4 1-7z" fill="#DEECF1"/>
<path transform="translate(1163,373)" d="m0 0h10v3l-3 1h-11l1-3z" fill="#DDEFF5"/>
<path transform="translate(962,391)" d="m0 0 1 2-1 8-3 2-2 9-3 4 1-8 6-16z" fill="#97AFBA"/>
<path transform="translate(859,649)" d="m0 0h13l5 1v2h-15z" fill="#DDEFF5"/>
<path transform="translate(355,558)" d="m0 0h1v15l-5 15-1-4 2-9v-2h2z" fill="#EF927C"/>
<path transform="translate(434,546)" d="m0 0h1l-1 16-2 3-2-3 1-7z" fill="#F28F83"/>
<path transform="translate(542,750)" d="m0 0h1l1 8h2l4 10 2 7-3-3-7-15z" fill="#B0A1AF"/>
<path transform="translate(505,537)" d="m0 0 1 3-3 7-4 5v-8h2l1-5h3z" fill="#EE927D"/>
<path transform="translate(913,347)" d="m0 0 2 1-2 7-1 4-4 1-2-3 4-5z" fill="#DEEFF5"/>
<path transform="translate(928,701)" d="m0 0 2 1-6 5-11 2v-2z" fill="#C299A9"/>
<path transform="translate(187,493)" d="m0 0 1 2 5-2-5 7-7 1 3-6z" fill="#DFEDF2"/>
<path transform="translate(511,677)" d="m0 0 1 4-5 14-2 10h-1v-7l3-12z" fill="#ADA3B1"/>
<path transform="translate(1074,570)" d="m0 0h2l-2 4-9 10-5 3-2-1 9-7z" fill="#90B3BE"/>
<path transform="translate(438,510)" d="m0 0 2 1-1 5-3 3-4-1 1-5z" fill="#F18F82"/>
<path transform="translate(1337,375)" d="m0 0 4 2 4 8-1 4-6-10z" fill="#6ABFC6"/>
<path transform="translate(486,831)" d="m0 0h3l-1 4-4 1 1 3-3 2-1-8z" fill="#DEEDF2"/>
<path transform="translate(641,604)" d="m0 0 5 2 1 2 2-1-2 4-5 2v-5l-3-2z" fill="#EE848B"/>
<path transform="translate(155,550)" d="m0 0 1 3-1 6h-2v6l-2 4h-2l2-9z" fill="#8CB2BB"/>
<path transform="translate(783,737)" d="m0 0 2 1-4 5-6 3-2 2-4-1 10-7h2v-2z" fill="#B79EAD"/>
<path transform="translate(1129,601)" d="m0 0 4 3-6 3-7 7-2-1 7-8z" fill="#94B2BD"/>
<path transform="translate(435,703)" d="m0 0h1v11l-3 6-2-1 1-5 2-5z" fill="#F18F81"/>
<path transform="translate(764,651)" d="m0 0 6 6-1 8-3 3v-13z" fill="#B0A3B0"/>
<path transform="translate(187,828)" d="m0 0 5 2v2l4 2 4 4-1 3-12-12z" fill="#90B1BC"/>
<path transform="translate(173,798)" d="m0 0 4 4 7 10-1 3-4-5-6-10z" fill="#6BC0CB"/>
<path transform="translate(644,525)" d="m0 0h3v2l-6 4-13-1v-1l13-2z" fill="#DFEBEF"/>
<path transform="translate(712,693)" d="m0 0 11 6 7 1v1h-10l-6-4z" fill="#BF99A9"/>
<path transform="translate(439,821)" d="m0 0 3 1v3l-8 4v-3z" fill="#F0937C"/>
<path transform="translate(626,724)" d="m0 0 2 4-5 8-1-2 2-8z" fill="#D5909A"/>
<path transform="translate(634,629)" d="m0 0 5 1v4h-13v-1h8z" fill="#DEE8EC"/>
<path transform="translate(500,612)" d="m0 0 4 1-12 6h-2l1-4z" fill="#DDE4E6"/>
<path transform="translate(1033,540)" d="m0 0h1v7l-2 4h-2v-8h2z" fill="#DEEFF5"/>
<path transform="translate(580,801)" d="m0 0h3v2l10 1 4 2h-9l-7-3z" fill="#EF7A92"/>
<path transform="translate(430,896)" d="m0 0 6 2-2 2h-10l2-1 1-2z" fill="#F28F83"/>
<path transform="translate(427,830)" d="m0 0 2 1-10 10-1 2-2-1 2-4z" fill="#C09FA1"/>
<path transform="translate(434,717)" d="m0 0h1l-1 7-4 8h-2l2-6z" fill="#96AEB9"/>
<path transform="translate(794,720)" d="m0 0h2v4l-6 3-1-4z" fill="#6AC0C9"/>
<path transform="translate(442,711)" d="m0 0h1v9l-3 5-1-2 2-11z" fill="#6CBFC8"/>
<path transform="translate(914,637)" d="m0 0 2 1-5 5-5 2 2-4z" fill="#B1A3B0"/>
<path transform="translate(797,574)" d="m0 0h1l-1 10h-2l-2-8h3z" fill="#BA9DAC"/>
<path transform="translate(423,572)" d="m0 0h1v5l-3 2-1 3-2-1v-6h4z" fill="#F28F83"/>
<path transform="translate(660,815)" d="m0 0 3 1v6l-8-2z" fill="#ED858C"/>
<path transform="translate(1530,363)" d="m0 0 5 2 3 3 1 4-4-2-5-5z" fill="#DCEFF5"/>
<path transform="translate(349,588)" d="m0 0 1 2-7 8-3 1 2-5 5-3z" fill="#F0937C"/>
</svg>
